<svg xmlns="http://www.w3.org/2000/svg" width="1084.156" height="758.565" viewBox="0 0 1084.156 758.565">
  <path id="Path_145" data-name="Path 145" d="M519.15,99.87c-44.07-16.76-90.64-30.76-138.18-29-69.9,2.58-137,41.91-169.86,99.66-27.88,48.93-31.32,106.28-43.33,160.58C153,398,124.64,461.59,94.36,523.76c-16.26,33.4-33.42,67.52-36.09,104.13-3.7,50.83,22.27,101.48,63,135.29s94.82,51.65,149.11,55.54c28.89,2.07,59.08.15,84.74-12.43,27.15-13.31,46.94-37.36,74.2-50.48,25.26-12.16,54.81-13.86,83.17-12.28a394.643,394.643,0,0,1,108.58,21.6c39.64,13.92,76.5,34.09,116,48.21s83.74,22,124.16,10.22c38-11.07,68-37.95,95.05-65.17A1155.174,1155.174,0,0,0,1077.5,615c24.41-34.21,47.13-70.3,57.92-110.17,20.64-76.23-7.76-162.23-70.75-214.29-52.19-43.13-122.23-61.85-190.79-73.21-62.52-10.36-134.81-11-192.36-38C626.64,153.55,576.7,121.77,519.15,99.87Z" transform="translate(-57.92 -70.72)" fill="#6c63ff" opacity="0.1"/>
</svg>
