<svg xmlns="http://www.w3.org/2000/svg" width="642.711" height="678.514" viewBox="0 0 642.711 678.514">
  <g id="Group_6" data-name="Group 6" transform="translate(-304.51 -21.802)">
    <path id="Path_2" data-name="Path 2" d="M632.58,619v36.33h10.33l-2-39Z" fill="#aaabb0"/>
    <path id="Path_3" data-name="Path 3" d="M477.41,611.67V648h10.34l-2-39Z" fill="#aaabb0"/>
    <rect id="Rectangle_8" data-name="Rectangle 8" width="13.33" height="64.67" rx="6.665" transform="translate(644.58 551.67)" fill="#aaabb0"/>
    <rect id="Rectangle_9" data-name="Rectangle 9" width="13.33" height="79" rx="6.665" transform="translate(473.58 537.33)" fill="#aaabb0"/>
    <path id="Path_4" data-name="Path 4" d="M732.84,235.38s13.33-5.67,15.33,0,3,54.67,3,54.67H738.5Z" transform="translate(-57.92 -70.71)" fill="#aaabb0"/>
    <path id="Path_5" data-name="Path 5" d="M586.84,235.38s-13.34-5.67-15.34,0-3,54.67-3,54.67h12.67Z" transform="translate(-57.92 -70.71)" fill="#aaabb0"/>
    <path id="Path_6" data-name="Path 6" d="M530.91,116l-2,40.67h9V115Z" fill="#aaabb0"/>
    <path id="Path_7" data-name="Path 7" d="M581.17,290.05l2.67-58.67s-1-13,30.66-9,124.34,12,124.34,12v55.67Z" transform="translate(-57.92 -70.71)" fill="#33323d"/>
    <path id="Path_8" data-name="Path 8" d="M707.84,599.05l-5,89.66s-73.34,40.67-162.34,2l8-94.33Z" transform="translate(-57.92 -70.71)" fill="#33323d"/>
    <path id="Path_9" data-name="Path 9" d="M580.25,175.33l1.66,58H685.25l-6-76.66Z" fill="#444053"/>
    <rect id="Rectangle_10" data-name="Rectangle 10" width="97.34" height="123.33" transform="translate(493.41 490)" fill="#4c4981"/>
    <path id="Path_10" data-name="Path 10" d="M612.84,611.05s14-11,16.33-7.67-8.32,17.67-12.66,16S612.84,611.05,612.84,611.05Z" transform="translate(-57.92 -70.71)" fill="#ffb9b9"/>
    <rect id="Rectangle_11" data-name="Rectangle 11" width="638.97" height="320" transform="translate(304.51 216)" fill="#504f60"/>
    <path id="Path_11" data-name="Path 11" d="M581.5,184.38s-5-46.67,0-52.33,89-59.34,166.67,3.66c0,0,7.33.34,6,17a200.005,200.005,0,0,0,.16,31.67S587.17,196.38,581.5,184.38Z" transform="translate(-57.92 -70.71)" fill="#33323d"/>
    <path id="Path_12" data-name="Path 12" d="M581.5,184.38s-5-46.67,0-52.33,89-59.34,166.67,3.66c0,0,7.33.34,6,17a200.005,200.005,0,0,0,.16,31.67S587.17,196.38,581.5,184.38Z" transform="translate(-57.92 -70.71)" opacity="0.1"/>
    <path id="Path_13" data-name="Path 13" d="M581.5,190.38s-5-46.67,0-52.33,89-59.34,166.67,3.66c0,0,7.33.34,6,17a200.005,200.005,0,0,0,.16,31.67S587.17,202.38,581.5,190.38Z" transform="translate(-57.92 -70.71)" fill="#33323d"/>
    <path id="Path_14" data-name="Path 14" d="M757.17,169.05s5.33,20,3.67,23.33-1.36,12.67-1.36,12.67.36,6-2.31,6.66-5,1-2.84,3,0,5,0,5-1.17,4.67,0,7.67-6.84,4.25-6.16,8,2.92,14.33,0,14.67,1,13.33-1.63,13.33-4.5,23.33-4.5,23.33-18.5-15.66-30.83-11.33c0,0,1-13,5-17.67S719,241.05,719,241.05l19.84-59.67Z" transform="translate(-57.92 -70.71)" fill="#4c4981"/>
    <path id="Path_15" data-name="Path 15" d="M658.17,444.83c-4.33,4.79-9-20.79-9-20.79s-12.33,17-20.33,5.67c-5.54-7.85-1.17-30.09,2-43,1.42-5.74,2.62-9.64,2.62-9.64l18-3s.06,3.92.46,8.68c.54,6.43,1.71,14.41,4.2,16.32C660.51,402.38,662.51,440,658.17,444.83Z" transform="translate(-57.92 -70.71)" fill="#ae6e79"/>
    <path id="Path_16" data-name="Path 16" d="M648.84,145.38s-31.34-.33-39,16.33-8,22.34-11,25,32.66,16.67,32.66,16.67l1.67,57.33s7-7.09,18.33-3.88,25.67,0,25.67,0-.67-1.21,8.67,0,39-14.45,39-14.45.49-25.08-.17-30.42,21.16-44.58,21.16-44.58,17-16.33-.66-22c0,0-6.25-9.42-22.33-9.33S648.84,145.38,648.84,145.38Z" transform="translate(-57.92 -70.71)" opacity="0.1"/>
    <path id="Path_17" data-name="Path 17" d="M648.84,144.38s-31.34-.33-39,16.33-8,22.34-11,25,32.66,16.67,32.66,16.67l1.67,57.33s7-7.09,18.33-3.88,25.67,0,25.67,0-.67-1.21,8.67,0,39-14.45,39-14.45,11.66-19,11-24.33,23.33-45.67,23.33-45.67,3.67-21.33-14-27c0,0-6.25-9.42-22.33-9.33S648.84,144.38,648.84,144.38Z" transform="translate(-57.92 -70.71)" fill="#4c4981"/>
    <path id="Path_18" data-name="Path 18" d="M652,382.72c-6.87-2.14-17.65,2.58-21.08,4,1.42-5.74,2.62-9.64,2.62-9.64l18-3S651.57,378,652,382.72Z" transform="translate(-57.92 -70.71)" opacity="0.1"/>
    <path id="Path_19" data-name="Path 19" d="M608.5,185.71h-9.66s-2,20.34,0,26.34,3,5.13,2.33,9.57,4.67,11.24,4.67,11.24.66,16.76,4,23-3.67,34.22-3.67,34.22a40.261,40.261,0,0,0,8.33,13c5.67,5.66,8.67,26.66,7,34.66s4.67,11,4.67,11,2.67,37.34,3.67,37.34,20.33-10,26.33-1.34l-4.67-34.33.34-66.33s-6.34-8.34-3-15.67-2.67-24.67-2.67-24.67l-8.67-38.66Z" transform="translate(-57.92 -70.71)" fill="#4c4981"/>
    <path id="Path_20" data-name="Path 20" d="M548.5,712.71s-14-3-14.33,0-16.67,33.67,3.67,42.67,74.66,28.33,163,3.33c0,0,5.66,2,4.33-10.33s-1.33-26-1.33-26-13.34-3.67-23.34-2.33S583.5,739.05,548.5,712.71Z" transform="translate(-57.92 -70.71)" fill="#33323d"/>
    <path id="Path_21" data-name="Path 21" d="M548.5,712.71s-14-3-14.33,0-16.67,33.67,3.67,42.67,74.66,28.33,163,3.33c0,0,5.66,2,4.33-10.33s-1.33-26-1.33-26-13.34-3.67-23.34-2.33S583.5,739.05,548.5,712.71Z" transform="translate(-57.92 -70.71)" opacity="0.1"/>
    <path id="Path_22" data-name="Path 22" d="M548.5,708.71s-14-3-14.33,0-16.67,33.67,3.67,42.67,74.66,28.33,163,3.33c0,0,5.66,2,4.33-10.33s-1.33-26-1.33-26-13.34-3.67-23.34-2.33S583.5,735.05,548.5,708.71Z" transform="translate(-57.92 -70.71)" fill="#33323d"/>
    <path id="Path_23" data-name="Path 23" d="M630.14,197.69c-.86,4.89-2.81,9.59-3.11,14.54s1.61,10.58,6.18,12.52a20.83,20.83,0,0,1,3.69,1.5c1.76,1.19,2.48,3.43,2.85,5.53a30.2,30.2,0,0,1,.35,8.22c-.25,2.76-.84,5.73.52,8.14,2.39,4.27,8.62,3.64,13.36,2.44l-1.63,12.63c-.13,1-.21,2.13.52,2.81a3.15,3.15,0,0,0,2.4.52c4.12-.26,8.36-.83,11.89-3s6.16-6.21,5.49-10.28c-.78-4.72-5.66-8.47-5-13.21.51-3.67,4.1-6,6.46-8.82,4.27-5.16,4.5-13,1.15-18.84s-9.82-9.46-16.48-10.12c-3.69-.37-7.53.08-11-1.2a8.34,8.34,0,0,1-5.1-5.38" transform="translate(-57.92 -70.71)" fill="#444053"/>
    <path id="Path_24" data-name="Path 24" d="M513.84,642.38l3.49-7.6S536.17,617.23,540.5,616s22-6.59,24.67-6.59,51.34-2.67,51.34-2.67l5.66,13.34-61.08,13.41-20.59,15Z" transform="translate(-57.92 -70.71)" fill="#767d9f"/>
    <path id="Path_25" data-name="Path 25" d="M660.59,437.71l-3.19,24.55-1.23,9.45-14.33,2s-1.55-3.32-3.74-8.42c-6.65-15.48-19.17-47.4-11.91-52.91,9.65-7.34,12,17,12,17l11-5.34Z" transform="translate(-57.92 -70.71)" fill="#ffb9b9"/>
    <rect id="Rectangle_12" data-name="Rectangle 12" width="72.37" height="109.33" transform="translate(527.91 412.67)" fill="#fff"/>
    <rect id="Rectangle_13" data-name="Rectangle 13" width="72.37" height="109.33" transform="translate(527.91 412.67)" opacity="0.1"/>
    <rect id="Rectangle_14" data-name="Rectangle 14" width="72.37" height="109.33" transform="translate(561.215 408.009) rotate(8.41)" fill="#fff"/>
    <rect id="Rectangle_15" data-name="Rectangle 15" width="37.25" height="56.27" transform="translate(567.954 418.324) rotate(8.41)" fill="#6c63ff"/>
    <rect id="Rectangle_16" data-name="Rectangle 16" width="45.13" height="12.22" transform="translate(555.773 489.83) rotate(8.41)" fill="#6c63ff"/>
    <circle id="Ellipse_1" data-name="Ellipse 1" cx="41.83" cy="41.83" r="41.83" transform="translate(577.42 53.17)" opacity="0.1"/>
    <circle id="Ellipse_2" data-name="Ellipse 2" cx="41.83" cy="41.83" r="41.83" transform="translate(577.42 52.17)" fill="#ae6e79"/>
    <path id="Path_26" data-name="Path 26" d="M642.68,195.71a4.761,4.761,0,0,1,.29-3.23c1.59-3.31,6.12-3.6,9.79-3.43,8.63.4,18.1.45,24.85-5,2.8-2.24,5.93-7.87,10-6.8,3.62.95,5.13,5.86,8.9,6.95,2.73.79,5.56-.47,8.34-1,4-.79,8.1-.13,12.16-.1s8.47-.74,11.24-3.71c3.74-4,3.13-10.25,2.8-15.73a84.686,84.686,0,0,1,1.43-21.14c1.36-6.92,3.45-14.66-.37-20.59-3.64-5.65-11.18-7.2-16.33-11.53-4.82-4-7.37-10.41-12.46-14.12-6.41-4.67-15.12-4-23-3.19l-17.1,1.82c-4.41.47-9,1-12.63,3.63-6.55,4.74-7.45,14.59-13.65,19.78-2.76,2.3-6.29,3.44-9.44,5.16s-6.19,4.44-6.55,8c-.3,3,1.32,5.77,2.11,8.66,1.87,6.9-1.05,14-2.92,20.95s-2.23,15.39,3.2,20c1.1.94,2.38,1.66,3.45,2.64,3.67,3.35,4.17,9,3.32,13.88" transform="translate(-57.92 -70.71)" fill="#444053"/>
    <ellipse id="Ellipse_3" data-name="Ellipse 3" cx="1" cy="2.5" rx="1" ry="2.5" transform="translate(621.66 141.25)" fill="#444053"/>
    <ellipse id="Ellipse_4" data-name="Ellipse 4" cx="1" cy="2.5" rx="1" ry="2.5" transform="translate(621.66 151.67)" fill="#444053"/>
    <path id="Path_27" data-name="Path 27" d="M658.4,444.76c1.07-1.23,1.78-4.39,2.19-8.56l-11.92-14.86S653.72,450.15,658.4,444.76Z" transform="translate(-57.92 -70.71)" fill="#ae6e79"/>
    <path id="Path_28" data-name="Path 28" d="M671.84,690.38s-19.56,30.24-80.67,27c-57.57-3-85.67-31.33-84.33-41.33s-3.67-34.34,8.66-41.34c7.15-4.05,16.56-1.65,23.2,1.09a13.1,13.1,0,0,0,13.77-2.47c6.07-5.47,17.39-11.63,35.26-6.78a12.7,12.7,0,0,0,7-.13c7.44-2.27,25.15-6.21,38,2.54a13,13,0,0,0,13.92.53l.18-.11c6-3.67,34,31,34,31S682.17,687.05,671.84,690.38Z" transform="translate(-57.92 -70.71)" opacity="0.1"/>
    <path id="Path_29" data-name="Path 29" d="M671.84,691.38s-19.56,30.24-80.67,27c-57.57-3-85.67-31.33-84.33-41.33s-3.67-34.34,8.66-41.34c7.15-4.05,16.56-1.65,23.2,1.09a13.1,13.1,0,0,0,13.77-2.47c6.07-5.47,17.39-11.63,35.26-6.78a12.7,12.7,0,0,0,7-.13c7.44-2.27,25.15-6.21,38,2.54a13,13,0,0,0,13.92.53l.18-.11c6-3.67,34,31,34,31S682.17,688.05,671.84,691.38Z" transform="translate(-57.92 -70.71)" fill="#767d9f"/>
    <circle id="Ellipse_5" data-name="Ellipse 5" cx="39.84" cy="39.84" r="39.84" transform="translate(493.41 552.83)" opacity="0.1"/>
    <circle id="Ellipse_6" data-name="Ellipse 6" cx="39.84" cy="39.84" r="39.84" transform="translate(493.41 553.83)" fill="#ffb9b9"/>
    <path id="Path_30" data-name="Path 30" d="M579.75,629.94c-4.18,1.13-8.3,3.29-10.34,6.84-1.23,2.14-1.66,4.71-3.44,6.49-2.52,2.53-6.77,2.58-10.18,4s-5.66,6.42-2.32,8c-3.48.18-6.06,3.39-6.49,6.58s.78,6.37,1.95,9.41c3.82,9.84,7.93,20.11,16.35,27.11,13.72,11.42,34.4,10.89,52.83,9.68a8.64,8.64,0,0,0,4.33-1c2-1.32,2.25-3.85,2.58-6.07,1.39-9.48,6.53-18.09,9.89-27.14s4.74-19.68-.92-27.69C625.66,634.27,593.77,626.14,579.75,629.94Z" transform="translate(-57.92 -70.71)" fill="#b96b6b"/>
    <path id="Path_31" data-name="Path 31" d="M657.4,462.26l-1.23,9.45-14.33,2s-1.55-3.32-3.74-8.42l19.07-3.58Z" transform="translate(-57.92 -70.71)" opacity="0.1"/>
    <path id="Path_32" data-name="Path 32" d="M672.5,671.05l8.34-9.67-1.67-53.33a86.511,86.511,0,0,0,1.67-11.67c.33-5.67-4.17-18.33-4.17-18.33a39.71,39.71,0,0,1,2.83-7.34c2-4-2.82-13-2.82-13s-7.18-23.33-4.18-35-.73-18.33-.73-18.33-2.93-13-2.6-18.33-6.67-10.34-6.67-10.34l-5.33-13-21.33,4v45s1.33,43,0,51.34,2.66,16.33,2.66,16.33-2.33,12.33-.33,17,6,16,6,16a26,26,0,0,0,.67,12.16c2,5.84,0,9.17,0,9.17Z" transform="translate(-57.92 -70.71)" fill="#767d9f"/>
    <g id="Group_2" data-name="Group 2" opacity="0.1">
      <path id="Path_33" data-name="Path 33" d="M732.51,139.23A84.663,84.663,0,0,0,731,157a85.063,85.063,0,0,1,1.55-14.76c.88-4.44,2-9.22,1.76-13.65a83,83,0,0,1-1.8,10.64Z" transform="translate(-57.92 -70.71)"/>
      <path id="Path_34" data-name="Path 34" d="M626.82,180.51c-1.07-1-2.35-1.7-3.45-2.65-2.92-2.49-4.15-6.1-4.39-10-.29,5,.73,9.84,4.39,13,1.1.95,2.38,1.67,3.45,2.65a12.22,12.22,0,0,1,3.62,8.35C630.73,187.66,629.88,183.29,626.82,180.51Z" transform="translate(-57.92 -70.71)"/>
      <path id="Path_35" data-name="Path 35" d="M623.63,143.17a18.85,18.85,0,0,0-.54-6.29c-.58-2.14-1.62-4.23-2-6.38a6.648,6.648,0,0,1-.11.72c-.29,3,1.33,5.77,2.11,8.66A17,17,0,0,1,623.63,143.17Z" transform="translate(-57.92 -70.71)"/>
      <path id="Path_36" data-name="Path 36" d="M728.28,176.1c-2.77,3-7.18,3.74-11.24,3.71s-8.17-.69-12.16.11c-2.78.56-5.61,1.81-8.34,1-3.77-1.09-5.28-6-8.89-6.95-4.11-1.08-7.24,4.55-10,6.79-6.75,5.4-16.22,5.35-24.85,5-3.67-.17-8.2.12-9.78,3.44a4.64,4.64,0,0,0-.29,3.23l-12.22,1.92a23.706,23.706,0,0,1-.33,3l12.55-2a4.64,4.64,0,0,1,.29-3.23c1.58-3.32,6.11-3.61,9.78-3.44,8.63.4,18.1.45,24.85-5,2.8-2.24,5.93-7.87,10-6.79,3.61.94,5.12,5.86,8.89,6.95,2.73.78,5.56-.47,8.34-1,4-.8,8.1-.14,12.16-.11s8.47-.74,11.24-3.71,3.17-7.4,3-11.72C731.16,170.65,730.47,173.75,728.28,176.1Z" transform="translate(-57.92 -70.71)"/>
    </g>
    <g id="Group_3" data-name="Group 3" opacity="0.1">
      <path id="Path_37" data-name="Path 37" d="M635.71,224.13a20.226,20.226,0,0,0-3.69-1.5,9.55,9.55,0,0,1-4.83-4.94c.75,3.45,2.65,6.59,5.83,7.94a20.229,20.229,0,0,1,3.69,1.5,5.54,5.54,0,0,1,1.77,2.07C638.08,227.24,637.35,225.24,635.71,224.13Z" transform="translate(-57.92 -70.71)"/>
      <path id="Path_38" data-name="Path 38" d="M652.79,248.46c-4.61,1.17-10.63,1.78-13.16-2.13a6.869,6.869,0,0,0,.8,2.69c2.16,3.85,7.44,3.72,11.93,2.77Z" transform="translate(-57.92 -70.71)"/>
      <path id="Path_39" data-name="Path 39" d="M671.47,251.2c.64,4.06-2,8.11-5.5,10.24s-7.77,2.72-11.89,3a4.08,4.08,0,0,1-1.94-.22,2.38,2.38,0,0,0,2.94,3.22c4.12-.26,8.36-.83,11.89-3s6.17-6.21,5.49-10.28a11.344,11.344,0,0,0-.99-2.96Z" transform="translate(-57.92 -70.71)"/>
      <path id="Path_40" data-name="Path 40" d="M675.91,215a16.46,16.46,0,0,1-3,14.15c-2.36,2.86-5.95,5.15-6.46,8.82a8.33,8.33,0,0,0,1,4.87,6.5,6.5,0,0,1,0-1.87c.51-3.67,4.1-6,6.46-8.82C677.79,227.46,678.33,220.55,675.91,215Z" transform="translate(-57.92 -70.71)"/>
    </g>
    <g id="Group_4" data-name="Group 4" opacity="0.1">
      <path id="Path_41" data-name="Path 41" d="M555.8,648.81c3.4-1.41,7.65-1.46,10.18-4,1.78-1.78,2.21-4.35,3.44-6.48,2-3.56,6.15-5.71,10.33-6.84,14-3.8,45.92,4.32,54.24,16.09a21.85,21.85,0,0,1,3.82,12.08A22.58,22.58,0,0,0,634,645.59c-8.32-11.77-40.21-19.89-54.24-16.09-4.18,1.13-8.3,3.28-10.33,6.84-1.23,2.13-1.66,4.7-3.44,6.48-2.53,2.53-6.78,2.58-10.18,4-2.59,1.07-4.51,4.23-3.81,6.35a6.88,6.88,0,0,1,3.8-4.36Z" transform="translate(-57.92 -70.71)"/>
      <path id="Path_42" data-name="Path 42" d="M547,663.34c.42-3.2,3-6.4,6.49-6.58a2.66,2.66,0,0,1-1.53-1.71,7.77,7.77,0,0,0-5,6.29,10.567,10.567,0,0,0,0,2.45A1.713,1.713,0,0,0,547,663.34Z" transform="translate(-57.92 -70.71)"/>
    </g>
    <rect id="Rectangle_17" data-name="Rectangle 17" width="91" height="118.67" transform="translate(609.91 230.24)" fill="#fff"/>
    <rect id="Rectangle_18" data-name="Rectangle 18" width="91" height="118.67" transform="translate(609.91 230.24)" opacity="0.1"/>
    <rect id="Rectangle_19" data-name="Rectangle 19" width="91" height="118.67" transform="translate(645.998 252.631) rotate(-9.76)" fill="#fff"/>
    <rect id="Rectangle_20" data-name="Rectangle 20" width="21.38" height="27.88" transform="translate(667.733 332.357) rotate(-9.76)" fill="#6c63ff"/>
    <rect id="Rectangle_21" data-name="Rectangle 21" width="21.38" height="27.88" transform="translate(696.89 327.337) rotate(-9.76)" fill="#6c63ff"/>
    <rect id="Rectangle_22" data-name="Rectangle 22" width="74.975" height="28.005" transform="translate(664.67 296.143) rotate(-9.744)" fill="#6c63ff"/>
    <rect id="Rectangle_23" data-name="Rectangle 23" width="74.975" height="6.248" transform="translate(658.51 263.201) rotate(-9.744)" fill="#6c63ff"/>
    <rect id="Rectangle_24" data-name="Rectangle 24" width="74.975" height="6.248" transform="translate(660.934 274.529) rotate(-9.744)" fill="#6c63ff"/>
    <path id="Path_43" data-name="Path 43" d="M719,268.71s-41.83,42-20.83,52.67,34.67-35.5,34.67-35.5l3.32-10.5Z" transform="translate(-57.92 -70.71)" fill="#ae6e79"/>
    <path id="Path_44" data-name="Path 44" d="M715.34,265l-5.17,11.42S735.67,280,741,287.71l-3.16-20.15-3.75-8.6Z" transform="translate(-57.92 -70.71)" opacity="0.1"/>
    <path id="Path_45" data-name="Path 45" d="M716.34,264l-5.17,11.42S736.67,279,742,286.71l-3.16-20.15-3.75-8.6Z" transform="translate(-57.92 -70.71)" fill="#4c4981"/>
    <path id="Path_46" data-name="Path 46" d="M812.78,403.26l-.55.38.76.34.82-.07.1-.57Z" fill="#464a5f"/>
    <path id="Path_47" data-name="Path 47" d="M812.78,403.26l-.55.38.76.34.82-.07.1-.57Z" opacity="0.1"/>
    <path id="Path_48" data-name="Path 48" d="M812.78,403.26l-.56.36-.44-.54.27-.44.25-.08Z" fill="#9c9ca1"/>
    <path id="Path_49" data-name="Path 49" d="M812.78,403.26l-.56.36-.44-.54.27-.44.25-.08Z" opacity="0.1"/>
    <path id="Path_50" data-name="Path 50" d="M969.13,404.86l-40.94-59.13a4.87,4.87,0,0,0-6.78-1.25l-91.26,62.64a4.89,4.89,0,0,0-1.27,6.79l40.83,59.88Z" transform="translate(-57.92 -70.71)" fill="#9c9ca1"/>
    <path id="Path_51" data-name="Path 51" d="M969.13,404.86l-40.94-59.13a4.87,4.87,0,0,0-6.78-1.25l-91.26,62.64a4.89,4.89,0,0,0-1.27,6.79l40.83,59.88Z" transform="translate(-57.92 -70.71)" opacity="0.1"/>
    <path id="Path_52" data-name="Path 52" d="M970.13,405l-40.94-59.13a4.88,4.88,0,0,0-6.79-1.25L831.15,407.3a4.9,4.9,0,0,0-1.28,6.79L870.7,474Z" transform="translate(-57.92 -70.71)" fill="#9c9ca1"/>
    <path id="Path_53" data-name="Path 53" d="M1004.35,416.69l-34-10.92L870.91,474.7,905.45,486a5.23,5.23,0,0,0,4.63-.7l94.55-66.76a1,1,0,0,0-.28-1.85Z" transform="translate(-57.92 -70.71)" fill="#464a5f"/>
    <path id="Path_54" data-name="Path 54" d="M1004.35,416.69l-34-10.92L870.91,474.7,905.45,486a5.23,5.23,0,0,0,4.63-.7l94.55-66.76a1,1,0,0,0-.28-1.85Z" transform="translate(-57.92 -70.71)" opacity="0.1"/>
    <path id="Path_55" data-name="Path 55" d="M1004.14,416l-34-10.93L870.7,474l34.54,11.28a5.19,5.19,0,0,0,4.63-.69l94.55-66.76a1,1,0,0,0-.28-1.83Z" transform="translate(-57.92 -70.71)" fill="#464a5f"/>
    <g id="Group_5" data-name="Group 5" opacity="0.1">
      <path id="Path_56" data-name="Path 56" d="M954.07,402.36l-2.51-3.6a1,1,0,0,0-1.36-.25L946.47,401a1,1,0,0,0-.27,1.35l2.31,3.55a1,1,0,0,0,1.35.29l3.93-2.47A1,1,0,0,0,954.07,402.36Z" transform="translate(-57.92 -70.71)"/>
      <path id="Path_57" data-name="Path 57" d="M947.37,407l-2.52-3.59a1,1,0,0,0-1.36-.25l-3.72,2.51a1,1,0,0,0-.28,1.35l2.31,3.55a1,1,0,0,0,1.35.3l3.94-2.47a1,1,0,0,0,.28-1.4Z" transform="translate(-57.92 -70.71)"/>
      <path id="Path_58" data-name="Path 58" d="M940.33,411.87l-2.52-3.59a1,1,0,0,0-1.36-.25l-3.73,2.51a1,1,0,0,0-.27,1.36l2.31,3.55a1,1,0,0,0,1.35.29l3.93-2.47a1,1,0,0,0,.29-1.4Z" transform="translate(-57.92 -70.71)"/>
      <path id="Path_59" data-name="Path 59" d="M933.2,416.81l-2.52-3.6a1,1,0,0,0-1.35-.25l-3.73,2.52a1,1,0,0,0-.27,1.35l2.31,3.55a1,1,0,0,0,1.34.3l3.94-2.48a1,1,0,0,0,.28-1.39Z" transform="translate(-57.92 -70.71)"/>
      <path id="Path_60" data-name="Path 60" d="M926.08,421.74l-2.52-3.59a1,1,0,0,0-1.36-.25l-3.72,2.51a1,1,0,0,0-.28,1.35l2.31,3.55a1,1,0,0,0,1.35.3l3.94-2.48a1,1,0,0,0,.28-1.39Z" transform="translate(-57.92 -70.71)"/>
      <path id="Path_61" data-name="Path 61" d="M919.27,427.12l-3.13-4.46a.45.45,0,0,0-.63-.12l-4.58,3.09a.45.45,0,0,0-.13.63l2.87,4.41a.46.46,0,0,0,.63.14l4.84-3a.46.46,0,0,0,.13-.69Z" transform="translate(-57.92 -70.71)"/>
      <path id="Path_62" data-name="Path 62" d="M912.15,432.05,909,427.59a.46.46,0,0,0-.64-.12l-4.58,3.09a.46.46,0,0,0-.12.63l2.87,4.41a.44.44,0,0,0,.63.14l4.83-3a.45.45,0,0,0,.16-.69Z" transform="translate(-57.92 -70.71)"/>
      <path id="Path_63" data-name="Path 63" d="M905.84,436.42,902.71,432a.46.46,0,0,0-.63-.11l-4.58,3.08a.47.47,0,0,0-.13.64l2.87,4.41a.47.47,0,0,0,.63.14l4.84-3a.46.46,0,0,0,.13-.74Z" transform="translate(-57.92 -70.71)"/>
      <path id="Path_64" data-name="Path 64" d="M898.78,441.3l-3.13-4.46a.46.46,0,0,0-.63-.11l-4.58,3.08a.46.46,0,0,0-.13.64l2.87,4.41a.47.47,0,0,0,.63.14l4.84-3a.47.47,0,0,0,.13-.7Z" transform="translate(-57.92 -70.71)"/>
      <path id="Path_65" data-name="Path 65" d="M891.94,446l-3.13-4.46a.45.45,0,0,0-.63-.12l-4.58,3.09a.45.45,0,0,0-.13.63l2.87,4.41a.46.46,0,0,0,.63.14l4.84-3a.46.46,0,0,0,.13-.69Z" transform="translate(-57.92 -70.71)"/>
      <path id="Path_66" data-name="Path 66" d="M885.1,450.78l-3.1-4.47a.46.46,0,0,0-.63-.11l-4.58,3.08a.46.46,0,0,0-.13.64l2.87,4.41a.47.47,0,0,0,.63.14l4.84-3a.46.46,0,0,0,.1-.69Z" transform="translate(-57.92 -70.71)"/>
      <path id="Path_67" data-name="Path 67" d="M878.26,455.51l-3.13-4.46a.45.45,0,0,0-.63-.12L869.92,454a.45.45,0,0,0-.13.63l2.87,4.41a.46.46,0,0,0,.63.14l4.84-3a.46.46,0,0,0,.13-.67Z" transform="translate(-57.92 -70.71)"/>
      <path id="Path_68" data-name="Path 68" d="M949.57,395.85l-2.52-3.6a1,1,0,0,0-1.36-.25L942,394.52a1,1,0,0,0-.28,1.35l2.31,3.55a1,1,0,0,0,1.35.29l3.94-2.47a1,1,0,0,0,.25-1.39Z" transform="translate(-57.92 -70.71)"/>
      <path id="Path_69" data-name="Path 69" d="M939.72,381.62,937.2,378a1,1,0,0,0-1.35-.25l-3.73,2.51a1,1,0,0,0-.28,1.35l2.31,3.55a1,1,0,0,0,1.35.3l3.94-2.47A1,1,0,0,0,939.72,381.62Z" transform="translate(-57.92 -70.71)"/>
      <path id="Path_70" data-name="Path 70" d="M942.86,400.49l-2.52-3.59a1,1,0,0,0-1.35-.25l-3.73,2.51a1,1,0,0,0-.27,1.35l2.3,3.55a1,1,0,0,0,1.35.3l3.94-2.47a1,1,0,0,0,.28-1.4Z" transform="translate(-57.92 -70.71)"/>
      <path id="Path_71" data-name="Path 71" d="M935.82,405.36l-2.52-3.59a1,1,0,0,0-1.36-.25L928.22,404a1,1,0,0,0-.28,1.36l2.31,3.55a1,1,0,0,0,1.35.29l3.94-2.47A1,1,0,0,0,935.82,405.36Z" transform="translate(-57.92 -70.71)"/>
      <path id="Path_72" data-name="Path 72" d="M928.69,410.3l-2.51-3.6a1,1,0,0,0-1.36-.25L921.09,409a1,1,0,0,0-.27,1.35l2.31,3.55a1,1,0,0,0,1.35.29l3.93-2.47a1,1,0,0,0,.28-1.42Z" transform="translate(-57.92 -70.71)"/>
      <path id="Path_73" data-name="Path 73" d="M933.17,386.49l-2.52-3.59a1,1,0,0,0-1.35-.25l-3.73,2.51a1,1,0,0,0-.28,1.35l2.31,3.55a1,1,0,0,0,1.35.3l3.94-2.47a1,1,0,0,0,.28-1.4Z" transform="translate(-57.92 -70.71)"/>
      <path id="Path_74" data-name="Path 74" d="M926.13,391.37l-2.52-3.6a1,1,0,0,0-1.36-.25L918.53,390a1,1,0,0,0-.28,1.35l2.31,3.55a1,1,0,0,0,1.35.29l3.94-2.47A1,1,0,0,0,926.13,391.37Z" transform="translate(-57.92 -70.71)"/>
      <path id="Path_75" data-name="Path 75" d="M919,396.3l-2.52-3.59a1,1,0,0,0-1.35-.26L911.4,395a1,1,0,0,0-.27,1.35l2.31,3.55a1,1,0,0,0,1.35.3l3.93-2.48a1,1,0,0,0,.28-1.42Z" transform="translate(-57.92 -70.71)"/>
      <path id="Path_76" data-name="Path 76" d="M921.57,415.23l-2.52-3.59a1,1,0,0,0-1.35-.26L914,413.9a1,1,0,0,0-.27,1.35L916,418.8a1,1,0,0,0,1.34.3l3.94-2.48a1,1,0,0,0,.29-1.39Z" transform="translate(-57.92 -70.71)"/>
      <path id="Path_77" data-name="Path 77" d="M914.45,420.16l-2.52-3.59a1,1,0,0,0-1.36-.25l-3.72,2.51a1,1,0,0,0-.28,1.35l2.31,3.55a1,1,0,0,0,1.35.3l3.94-2.47a1,1,0,0,0,.28-1.4Z" transform="translate(-57.92 -70.71)"/>
      <path id="Path_78" data-name="Path 78" d="M907.64,425.54l-3.13-4.46a.45.45,0,0,0-.63-.12l-4.58,3.09a.45.45,0,0,0-.13.63l2.87,4.41a.45.45,0,0,0,.63.14l4.84-3a.46.46,0,0,0,.13-.69Z" transform="translate(-57.92 -70.71)"/>
      <path id="Path_79" data-name="Path 79" d="M901.33,429.91l-3.13-4.47a.46.46,0,0,0-.63-.11L893,428.41a.47.47,0,0,0-.13.64l2.87,4.41a.47.47,0,0,0,.63.14l4.84-3a.44.44,0,0,0,.12-.69Z" transform="translate(-57.92 -70.71)"/>
      <path id="Path_80" data-name="Path 80" d="M894.27,434.79l-3.13-4.46a.46.46,0,0,0-.63-.11l-4.58,3.08a.45.45,0,0,0-.13.63l2.87,4.42a.47.47,0,0,0,.63.14l4.84-3a.47.47,0,0,0,.13-.7Z" transform="translate(-57.92 -70.71)"/>
      <path id="Path_81" data-name="Path 81" d="M887.43,439.53l-3.13-4.46a.45.45,0,0,0-.63-.12L879.09,438a.45.45,0,0,0-.13.63l2.87,4.41a.46.46,0,0,0,.63.14l4.84-3a.46.46,0,0,0,.13-.65Z" transform="translate(-57.92 -70.71)"/>
      <path id="Path_82" data-name="Path 82" d="M931.13,398.59,928.61,395a1,1,0,0,0-1.35-.25l-3.73,2.52a1,1,0,0,0-.27,1.35l2.31,3.55a1,1,0,0,0,1.34.29l3.94-2.47a1,1,0,0,0,.28-1.4Z" transform="translate(-57.92 -70.71)"/>
      <path id="Path_83" data-name="Path 83" d="M924,403.53l-2.52-3.6a1,1,0,0,0-1.36-.25l-3.72,2.52a1,1,0,0,0-.28,1.35l2.31,3.55a1,1,0,0,0,1.35.3l3.94-2.48a1,1,0,0,0,.28-1.39Z" transform="translate(-57.92 -70.71)"/>
      <path id="Path_84" data-name="Path 84" d="M916.89,408.46l-2.52-3.59a1,1,0,0,0-1.36-.25l-3.73,2.51a1,1,0,0,0-.27,1.35l2.31,3.55a1,1,0,0,0,1.35.3l3.93-2.48a1,1,0,0,0,.29-1.39Z" transform="translate(-57.92 -70.71)"/>
      <path id="Path_85" data-name="Path 85" d="M909.76,413.39l-2.52-3.59a1,1,0,0,0-1.35-.25l-3.73,2.51a1,1,0,0,0-.27,1.35L904.2,417a1,1,0,0,0,1.34.3l3.94-2.47a1,1,0,0,0,.28-1.44Z" transform="translate(-57.92 -70.71)"/>
      <path id="Path_86" data-name="Path 86" d="M903,418.77l-3.13-4.46a.45.45,0,0,0-.63-.12l-4.58,3.09a.46.46,0,0,0-.13.63l2.87,4.42a.45.45,0,0,0,.63.13l4.84-3a.46.46,0,0,0,.13-.69Z" transform="translate(-57.92 -70.71)"/>
      <path id="Path_87" data-name="Path 87" d="M896.65,423.14l-3.13-4.47a.47.47,0,0,0-.64-.11l-4.57,3.08a.47.47,0,0,0-.13.64l2.87,4.41a.46.46,0,0,0,.63.14l4.84-3a.46.46,0,0,0,.13-.69Z" transform="translate(-57.92 -70.71)"/>
      <path id="Path_88" data-name="Path 88" d="M889.59,428l-3.13-4.47a.47.47,0,0,0-.64-.11l-4.58,3.08a.48.48,0,0,0-.13.64l2.88,4.41a.46.46,0,0,0,.63.14l4.83-3a.45.45,0,0,0,.14-.69Z" transform="translate(-57.92 -70.71)"/>
      <path id="Path_89" data-name="Path 89" d="M882.75,432.76l-3.13-4.46a.46.46,0,0,0-.64-.12l-4.58,3.09a.46.46,0,0,0-.12.63l2.87,4.41a.44.44,0,0,0,.63.14l4.83-3a.45.45,0,0,0,.14-.69Z" transform="translate(-57.92 -70.71)"/>
      <path id="Path_90" data-name="Path 90" d="M880.59,444.26l-3.13-4.46a.46.46,0,0,0-.63-.11l-4.58,3.08a.45.45,0,0,0-.13.63l2.87,4.42a.47.47,0,0,0,.63.14l4.84-3a.47.47,0,0,0,.13-.7Z" transform="translate(-57.92 -70.71)"/>
      <path id="Path_91" data-name="Path 91" d="M873.75,449l-3.13-4.46a.45.45,0,0,0-.63-.12l-4.58,3.09a.45.45,0,0,0-.13.63l2.87,4.41a.46.46,0,0,0,.63.14l4.84-3a.46.46,0,0,0,.13-.69Z" transform="translate(-57.92 -70.71)"/>
      <path id="Path_92" data-name="Path 92" d="M884.49,420.66l-3-4.2a.62.62,0,0,0-.85-.15l-4.32,2.91a.61.61,0,0,0-.17.85l2.7,4.15a.6.6,0,0,0,.84.19l4.57-2.87a.62.62,0,0,0,.23-.88Z" transform="translate(-57.92 -70.71)"/>
      <path id="Path_93" data-name="Path 93" d="M877.65,425.4l-2.95-4.2a.61.61,0,0,0-.85-.16L869.53,424a.6.6,0,0,0-.17.84l2.7,4.16a.62.62,0,0,0,.84.19l4.57-2.87a.62.62,0,0,0,.18-.92Z" transform="translate(-57.92 -70.71)"/>
      <path id="Path_94" data-name="Path 94" d="M870.81,430.14l-2.95-4.21a.62.62,0,0,0-.85-.15l-4.32,2.91a.61.61,0,0,0-.17.85l2.7,4.15a.6.6,0,0,0,.84.19l4.57-2.87a.61.61,0,0,0,.18-.87Z" transform="translate(-57.92 -70.71)"/>
      <path id="Path_95" data-name="Path 95" d="M864.06,435l-3.13-4.47a.46.46,0,0,0-.63-.11l-4.58,3.08a.47.47,0,0,0-.13.64l2.87,4.41a.47.47,0,0,0,.63.14l4.84-3a.44.44,0,0,0,.13-.69Z" transform="translate(-57.92 -70.71)"/>
      <path id="Path_96" data-name="Path 96" d="M945,388.85,942.29,385a1,1,0,0,0-1.36-.24l-10.58,7.41a1,1,0,0,0-.26,1.34l2.55,3.94a1,1,0,0,0,1.39.27l10.74-7.51A1,1,0,0,0,945,388.85Z" transform="translate(-57.92 -70.71)"/>
      <path id="Path_97" data-name="Path 97" d="M875.89,437.35l-3.32-4.69a.45.45,0,0,0-.64-.11l-11.42,8a.45.45,0,0,0-.12.62l3.12,4.83a.46.46,0,0,0,.65.13L875.77,438a.47.47,0,0,0,.12-.65Z" transform="translate(-57.92 -70.71)"/>
      <path id="Path_98" data-name="Path 98" d="M912.22,401.48,909.16,397a.46.46,0,0,0-.63-.12L883.17,414a.46.46,0,0,0-.13.63l3.13,4.8a.46.46,0,0,0,.65.13l25.28-17.44a.46.46,0,0,0,.12-.64Z" transform="translate(-57.92 -70.71)"/>
    </g>
    <path id="Path_99" data-name="Path 99" d="M954.74,402.48l-2.52-3.6a1,1,0,0,0-1.36-.25l-3.72,2.52a1,1,0,0,0-.28,1.35l2.31,3.55a1,1,0,0,0,1.35.3l3.94-2.48a1,1,0,0,0,.28-1.39Z" transform="translate(-57.92 -70.71)" fill="#464a5f"/>
    <path id="Path_100" data-name="Path 100" d="M948,407.12l-2.52-3.59a1,1,0,0,0-1.35-.25l-3.73,2.51a1,1,0,0,0-.28,1.35l2.31,3.55a1,1,0,0,0,1.35.3l3.94-2.47a1,1,0,0,0,.28-1.4Z" transform="translate(-57.92 -70.71)" fill="#464a5f"/>
    <path id="Path_101" data-name="Path 101" d="M941,412l-2.52-3.59a1,1,0,0,0-1.36-.25l-3.72,2.52a1,1,0,0,0-.28,1.35l2.31,3.55a1,1,0,0,0,1.35.29l3.94-2.47A1,1,0,0,0,941,412Z" transform="translate(-57.92 -70.71)" fill="#464a5f"/>
    <path id="Path_102" data-name="Path 102" d="M933.86,416.93l-2.52-3.6a1,1,0,0,0-1.35-.25l-3.73,2.52A1,1,0,0,0,926,417l2.31,3.55a1,1,0,0,0,1.35.3l3.93-2.48a1,1,0,0,0,.27-1.44Z" transform="translate(-57.92 -70.71)" fill="#464a5f"/>
    <path id="Path_103" data-name="Path 103" d="M926.74,421.86l-2.52-3.59a1,1,0,0,0-1.35-.25l-3.73,2.51a1,1,0,0,0-.27,1.35l2.3,3.55a1,1,0,0,0,1.35.3l3.94-2.48a1,1,0,0,0,.28-1.39Z" transform="translate(-57.92 -70.71)" fill="#464a5f"/>
    <path id="Path_104" data-name="Path 104" d="M919.93,427.24l-3.13-4.46a.45.45,0,0,0-.63-.12l-4.58,3.09a.45.45,0,0,0-.13.63l2.87,4.41a.46.46,0,0,0,.63.14l4.84-3a.46.46,0,0,0,.13-.69Z" transform="translate(-57.92 -70.71)" fill="#464a5f"/>
    <path id="Path_105" data-name="Path 105" d="M912.81,432.17l-3.13-4.46a.46.46,0,0,0-.64-.12l-4.57,3.09a.45.45,0,0,0-.13.63l2.87,4.42a.45.45,0,0,0,.63.13l4.84-3a.47.47,0,0,0,.13-.69Z" transform="translate(-57.92 -70.71)" fill="#464a5f"/>
    <path id="Path_106" data-name="Path 106" d="M906.5,436.54l-3.13-4.47a.46.46,0,0,0-.63-.11L898.16,435a.47.47,0,0,0-.13.64l2.87,4.41a.47.47,0,0,0,.63.14l4.84-3a.46.46,0,0,0,.13-.65Z" transform="translate(-57.92 -70.71)" fill="#464a5f"/>
    <path id="Path_107" data-name="Path 107" d="M899.44,441.43,896.31,437a.46.46,0,0,0-.63-.11l-4.58,3.08a.46.46,0,0,0-.13.64l2.87,4.41a.47.47,0,0,0,.63.14l4.84-3a.46.46,0,0,0,.13-.73Z" transform="translate(-57.92 -70.71)" fill="#464a5f"/>
    <path id="Path_108" data-name="Path 108" d="M892.6,446.16l-3.13-4.46a.45.45,0,0,0-.63-.12l-4.58,3.09a.45.45,0,0,0-.13.63l2.87,4.41a.45.45,0,0,0,.63.14l4.84-3a.46.46,0,0,0,.13-.69Z" transform="translate(-57.92 -70.71)" fill="#464a5f"/>
    <path id="Path_109" data-name="Path 109" d="M885.76,450.9l-3.13-4.47a.46.46,0,0,0-.63-.11l-4.58,3.08a.47.47,0,0,0-.13.64l2.87,4.41a.47.47,0,0,0,.63.14l4.84-3a.46.46,0,0,0,.13-.69Z" transform="translate(-57.92 -70.71)" fill="#464a5f"/>
    <path id="Path_110" data-name="Path 110" d="M878.92,455.63l-3.13-4.46a.45.45,0,0,0-.63-.12l-4.58,3.09a.45.45,0,0,0-.13.63l2.87,4.41a.45.45,0,0,0,.63.14l4.84-3a.46.46,0,0,0,.13-.69Z" transform="translate(-57.92 -70.71)" fill="#464a5f"/>
    <path id="Path_111" data-name="Path 111" d="M950.23,396l-2.52-3.6a1,1,0,0,0-1.35-.25l-3.73,2.52a1,1,0,0,0-.27,1.35l2.3,3.55a1,1,0,0,0,1.35.3l3.94-2.48a1,1,0,0,0,.28-1.39Z" transform="translate(-57.92 -70.71)" fill="#464a5f"/>
    <path id="Path_112" data-name="Path 112" d="M940.38,381.74l-2.52-3.59a1,1,0,0,0-1.35-.25l-3.73,2.51a1,1,0,0,0-.27,1.35l2.31,3.55a1,1,0,0,0,1.34.3l3.94-2.47a1,1,0,0,0,.28-1.4Z" transform="translate(-57.92 -70.71)" fill="#464a5f"/>
    <path id="Path_113" data-name="Path 113" d="M943.52,400.61,941,397a1,1,0,0,0-1.35-.25l-3.73,2.51a1,1,0,0,0-.27,1.35l2.31,3.55a1,1,0,0,0,1.34.3l3.94-2.47a1,1,0,0,0,.28-1.38Z" transform="translate(-57.92 -70.71)" fill="#464a5f"/>
    <path id="Path_114" data-name="Path 114" d="M936.48,405.48,934,401.89a1,1,0,0,0-1.35-.25l-3.73,2.51a1,1,0,0,0-.27,1.36l2.3,3.55a1,1,0,0,0,1.35.29l3.94-2.47a1,1,0,0,0,.24-1.4Z" transform="translate(-57.92 -70.71)" fill="#464a5f"/>
    <path id="Path_115" data-name="Path 115" d="M929.36,410.42l-2.52-3.6a1,1,0,0,0-1.36-.25l-3.72,2.52a1,1,0,0,0-.28,1.35l2.31,3.55a1,1,0,0,0,1.35.3l3.94-2.48a1,1,0,0,0,.28-1.39Z" transform="translate(-57.92 -70.71)" fill="#464a5f"/>
    <path id="Path_116" data-name="Path 116" d="M933.83,386.61,931.31,383a1,1,0,0,0-1.35-.25l-3.73,2.51a1,1,0,0,0-.27,1.35l2.31,3.55a1,1,0,0,0,1.34.3l3.94-2.47A1,1,0,0,0,933.83,386.61Z" transform="translate(-57.92 -70.71)" fill="#464a5f"/>
    <path id="Path_117" data-name="Path 117" d="M926.79,391.49l-2.52-3.6a1,1,0,0,0-1.35-.25l-3.73,2.52a1,1,0,0,0-.28,1.35l2.31,3.55a1,1,0,0,0,1.35.3l3.94-2.48a1,1,0,0,0,.28-1.39Z" transform="translate(-57.92 -70.71)" fill="#464a5f"/>
    <path id="Path_118" data-name="Path 118" d="M919.67,396.42l-2.52-3.59a1,1,0,0,0-1.36-.25l-3.72,2.51a1,1,0,0,0-.28,1.35L914.1,400a1,1,0,0,0,1.35.3l3.93-2.48a1,1,0,0,0,.29-1.4Z" transform="translate(-57.92 -70.71)" fill="#464a5f"/>
    <path id="Path_119" data-name="Path 119" d="M922.23,415.35l-2.52-3.59a1,1,0,0,0-1.35-.25L914.63,414a1,1,0,0,0-.27,1.35l2.31,3.55a1,1,0,0,0,1.34.3l3.94-2.48A1,1,0,0,0,922.23,415.35Z" transform="translate(-57.92 -70.71)" fill="#464a5f"/>
    <path id="Path_120" data-name="Path 120" d="M915.11,420.28l-2.52-3.59a1,1,0,0,0-1.35-.25L907.51,419a1,1,0,0,0-.28,1.35l2.31,3.55a1,1,0,0,0,1.35.3l3.94-2.47a1,1,0,0,0,.28-1.45Z" transform="translate(-57.92 -70.71)" fill="#464a5f"/>
    <path id="Path_121" data-name="Path 121" d="M908.3,425.66l-3.13-4.46a.45.45,0,0,0-.63-.12L900,424.17a.45.45,0,0,0-.13.63l2.87,4.41a.45.45,0,0,0,.63.14l4.84-3a.47.47,0,0,0,.09-.69Z" transform="translate(-57.92 -70.71)" fill="#464a5f"/>
    <path id="Path_122" data-name="Path 122" d="M902,430l-3.13-4.47a.47.47,0,0,0-.64-.11l-4.58,3.08a.48.48,0,0,0-.13.64l2.88,4.41a.46.46,0,0,0,.63.14l4.83-3A.45.45,0,0,0,902,430Z" transform="translate(-57.92 -70.71)" fill="#464a5f"/>
    <path id="Path_123" data-name="Path 123" d="M894.93,434.92l-3.13-4.47a.46.46,0,0,0-.63-.11l-4.58,3.08a.47.47,0,0,0-.13.64l2.87,4.41a.47.47,0,0,0,.63.14l4.84-3a.44.44,0,0,0,.13-.69Z" transform="translate(-57.92 -70.71)" fill="#464a5f"/>
    <path id="Path_124" data-name="Path 124" d="M888.1,439.65l-3.1-4.46a.45.45,0,0,0-.63-.12l-4.58,3.09a.46.46,0,0,0-.13.63l2.87,4.41a.46.46,0,0,0,.63.14l4.84-3a.45.45,0,0,0,.1-.69Z" transform="translate(-57.92 -70.71)" fill="#464a5f"/>
    <path id="Path_125" data-name="Path 125" d="M931.79,398.72l-2.51-3.6a1,1,0,0,0-1.36-.25l-3.73,2.52a1,1,0,0,0-.27,1.35l2.31,3.55a1,1,0,0,0,1.35.29l3.93-2.47a1,1,0,0,0,.28-1.39Z" transform="translate(-57.92 -70.71)" fill="#464a5f"/>
    <path id="Path_126" data-name="Path 126" d="M924.67,403.65l-2.52-3.59a1,1,0,0,0-1.35-.26l-3.73,2.52a1,1,0,0,0-.27,1.35l2.31,3.55a1,1,0,0,0,1.34.3l3.94-2.48a1,1,0,0,0,.28-1.39Z" transform="translate(-57.92 -70.71)" fill="#464a5f"/>
    <path id="Path_127" data-name="Path 127" d="M917.55,408.58,915,405a1,1,0,0,0-1.36-.25l-3.64,2.5a1,1,0,0,0-.28,1.35l2.31,3.55a1,1,0,0,0,1.35.3l3.94-2.47a1,1,0,0,0,.23-1.4Z" transform="translate(-57.92 -70.71)" fill="#464a5f"/>
    <path id="Path_128" data-name="Path 128" d="M910.42,413.51l-2.52-3.59a1,1,0,0,0-1.35-.25l-3.73,2.51a1,1,0,0,0-.27,1.35l2.31,3.55a1,1,0,0,0,1.34.3l3.94-2.47a1,1,0,0,0,.28-1.4Z" transform="translate(-57.92 -70.71)" fill="#464a5f"/>
    <path id="Path_129" data-name="Path 129" d="M903.62,418.89l-3.13-4.46a.46.46,0,0,0-.64-.12l-4.58,3.09a.46.46,0,0,0-.13.63l2.87,4.42a.46.46,0,0,0,.64.13l4.83-3a.46.46,0,0,0,.14-.69Z" transform="translate(-57.92 -70.71)" fill="#464a5f"/>
    <path id="Path_130" data-name="Path 130" d="M897.31,423.26l-3.13-4.46a.45.45,0,0,0-.63-.12L889,421.76a.47.47,0,0,0-.13.64l2.87,4.41a.47.47,0,0,0,.63.14l4.84-3a.46.46,0,0,0,.1-.69Z" transform="translate(-57.92 -70.71)" fill="#464a5f"/>
    <path id="Path_131" data-name="Path 131" d="M890.25,428.15l-3.13-4.47a.47.47,0,0,0-.64-.11l-4.57,3.08a.47.47,0,0,0-.13.64l2.87,4.41a.46.46,0,0,0,.63.14l4.84-3a.46.46,0,0,0,.13-.69Z" transform="translate(-57.92 -70.71)" fill="#464a5f"/>
    <path id="Path_132" data-name="Path 132" d="M883.41,432.88l-3.13-4.46a.46.46,0,0,0-.64-.12l-4.57,3.09a.45.45,0,0,0-.13.63l2.87,4.42a.45.45,0,0,0,.63.13l4.84-3a.47.47,0,0,0,.13-.69Z" transform="translate(-57.92 -70.71)" fill="#464a5f"/>
    <path id="Path_133" data-name="Path 133" d="M881.26,444.39l-3.13-4.47a.47.47,0,0,0-.64-.11l-4.58,3.08a.47.47,0,0,0-.13.64l2.87,4.41a.47.47,0,0,0,.63.14l4.84-3a.45.45,0,0,0,.14-.69Z" transform="translate(-57.92 -70.71)" fill="#464a5f"/>
    <path id="Path_134" data-name="Path 134" d="M874.42,449.12l-3.13-4.46a.46.46,0,0,0-.64-.12l-4.58,3.09a.46.46,0,0,0-.13.63l2.87,4.41a.46.46,0,0,0,.64.14l4.83-3a.45.45,0,0,0,.14-.69Z" transform="translate(-57.92 -70.71)" fill="#464a5f"/>
    <path id="Path_135" data-name="Path 135" d="M885.15,420.79l-2.95-4.21a.62.62,0,0,0-.85-.15L877,419.34a.62.62,0,0,0-.17.85l2.7,4.16a.62.62,0,0,0,.85.18l4.56-2.87a.61.61,0,0,0,.21-.87Z" transform="translate(-57.92 -70.71)" fill="#464a5f"/>
    <path id="Path_136" data-name="Path 136" d="M878.31,425.52l-2.95-4.2a.61.61,0,0,0-.85-.16l-4.32,2.92a.61.61,0,0,0-.17.84l2.7,4.16a.63.63,0,0,0,.85.19l4.57-2.87a.63.63,0,0,0,.17-.88Z" transform="translate(-57.92 -70.71)" fill="#464a5f"/>
    <path id="Path_137" data-name="Path 137" d="M871.47,430.26l-3-4.21a.61.61,0,0,0-.84-.15l-4.33,2.91a.62.62,0,0,0-.17.85l2.7,4.16a.62.62,0,0,0,.85.18l4.57-2.87a.61.61,0,0,0,.22-.87Z" transform="translate(-57.92 -70.71)" fill="#464a5f"/>
    <path id="Path_138" data-name="Path 138" d="M864.73,435.13l-3.13-4.47a.47.47,0,0,0-.64-.11l-4.58,3.08a.47.47,0,0,0-.12.64l2.87,4.41a.46.46,0,0,0,.63.14l4.84-3a.46.46,0,0,0,.13-.69Z" transform="translate(-57.92 -70.71)" fill="#464a5f"/>
    <path id="Path_139" data-name="Path 139" d="M945.67,389,943,385.14a1,1,0,0,0-1.36-.24L931,392.31a1,1,0,0,0-.26,1.34l2.56,3.94a1,1,0,0,0,1.39.27l10.73-7.51A1,1,0,0,0,945.67,389Z" transform="translate(-57.92 -70.71)" fill="#464a5f"/>
    <path id="Path_140" data-name="Path 140" d="M876.55,437.47l-3.32-4.69a.45.45,0,0,0-.64-.11l-11.42,8a.46.46,0,0,0-.12.63l3.13,4.82a.46.46,0,0,0,.65.13l11.61-8.13A.47.47,0,0,0,876.55,437.47Z" transform="translate(-57.92 -70.71)" fill="#464a5f"/>
    <path id="Path_141" data-name="Path 141" d="M912.88,401.6l-3-4.45a.47.47,0,0,0-.64-.13l-25.35,17.1a.45.45,0,0,0-.13.63l3.12,4.8a.46.46,0,0,0,.65.13l25.28-17.44A.46.46,0,0,0,912.88,401.6Z" transform="translate(-57.92 -70.71)" fill="#464a5f"/>
    <path id="Path_142" data-name="Path 142" d="M913,386.32l-13.48-19.59a2.5,2.5,0,0,0-3.46-.66L858.93,391a2.51,2.51,0,0,0-.67,3.49L872,414.64a2.5,2.5,0,0,0,3.49.66l36.87-25.51a2.49,2.49,0,0,0,.64-3.47Z" transform="translate(-57.92 -70.71)" opacity="0.1"/>
    <path id="Path_143" data-name="Path 143" d="M913.62,386.44l-13.48-19.59a2.51,2.51,0,0,0-3.46-.66L859.6,391.14a2.5,2.5,0,0,0-.68,3.49l13.7,20.13a2.5,2.5,0,0,0,3.49.66L913,389.91a2.49,2.49,0,0,0,.62-3.47Z" transform="translate(-57.92 -70.71)" fill="#939498"/>
    <path id="Path_144" data-name="Path 144" d="M997.21,418.1l-28.6-9.54-91.73,63.72,28.39,9.25a5.2,5.2,0,0,0,4.59-.68l87.61-60.92a1,1,0,0,0-.26-1.83Z" transform="translate(-57.92 -70.71)" fill="#6c63ff"/>
  </g>
</svg>
