<svg id="Group_12" data-name="Group 12" xmlns="http://www.w3.org/2000/svg" width="636.456" height="652" viewBox="0 0 636.456 652">
  <circle id="Ellipse_7" data-name="Ellipse 7" cx="14.92" cy="14.92" r="14.92" transform="translate(133.694 538.244)" fill="#6c63ff" opacity="0.4"/>
  <circle id="Ellipse_8" data-name="Ellipse 8" cx="10.466" cy="10.466" r="10.466" transform="translate(129.515 549.824)" fill="#6c63ff" opacity="0.4"/>
  <path id="Path_146" data-name="Path 146" d="M889.748,473.261C921.97,399.617,914.675,316.586,870,248.494L419.849,305l431.389-81.506c-53.2-62.786-135.586-99.559-222.914-99.494-155.345,0-281.276,114.167-281.276,255a233.361,233.361,0,0,0,2.609,34.736Z" transform="translate(-308.048 -124)" fill="#f2f2f2"/>
  <path id="Path_147" data-name="Path 147" d="M364.092,470.81C405.085,566.274,508.11,634,628.742,634c113.2,0,210.888-59.634,256.374-145.861Z" transform="translate(-308.048 -124)" fill="#f2f2f2"/>
  <circle id="Ellipse_9" data-name="Ellipse 9" cx="12" cy="12" r="12" transform="translate(123.191 100)" fill="#3f3d56"/>
  <circle id="Ellipse_10" data-name="Ellipse 10" cx="12" cy="12" r="12" transform="translate(578.552 240)" fill="#6c63ff"/>
  <rect id="Rectangle_29" data-name="Rectangle 29" width="20" height="20" transform="translate(114.785 339)" fill="#6c63ff"/>
  <path id="Path_148" data-name="Path 148" d="M576.048,317s33-14.379,48.5.81S583.048,328,576.048,317Z" transform="translate(-281.611 -124)" fill="#3f3d56"/>
  <path id="Path_149" data-name="Path 149" d="M633.03,248.8C621.94,230.067,600,229.193,600,229.193s-21.38-2.734-35.094,25.8c-12.783,26.6-30.426,52.284-2.84,58.511L567.048,298l3.086,16.663a107.923,107.923,0,0,0,11.8.2c29.542-.954,57.676.279,56.771-10.322C637.5,290.451,643.7,266.835,633.03,248.8Z" transform="translate(-282.473 -124)" fill="#2f2e41"/>
  <ellipse id="Ellipse_11" data-name="Ellipse 11" cx="56" cy="13" rx="56" ry="13" transform="translate(265.06 385)" fill="#3f3d56"/>
  <rect id="Rectangle_30" data-name="Rectangle 30" width="54.148" height="2" transform="matrix(0.997, -0.074, 0.074, 0.997, 313.746, 561.499)" fill="#2f2e41"/>
  <rect id="Rectangle_31" data-name="Rectangle 31" width="2" height="22.825" transform="matrix(0.482, -0.876, 0.876, 0.482, 272.268, 552.375)" fill="#2f2e41"/>
  <rect id="Rectangle_32" data-name="Rectangle 32" width="18" height="2" transform="translate(315.291 543.5)" fill="#2f2e41"/>
  <path id="Path_150" data-name="Path 150" d="M241.5,650.568l-2-.136,15-232,2,.136Z" transform="translate(22.202 0)" fill="#2f2e41"/>
  <path id="Path_151" data-name="Path 151" d="M315.5,650.549l-10-228,2-.1,10,228Z" transform="translate(28.073 0)" fill="#2f2e41"/>
  <rect id="Rectangle_33" data-name="Rectangle 33" width="2" height="230.784" transform="translate(364.645 420.582) rotate(-4.722)" fill="#2f2e41"/>
  <path id="Path_152" data-name="Path 152" d="M648.548,588.5s-14,26-23,26-8,17-6,21,7,13-1,26c-2.794,4.541-2.294,9.692-.461,14.473,5.138,13.4,25.124,9.337,24.486-5q-.011-.237-.026-.477c-1-16,7-41,15-47s15-22,15-22Z" transform="translate(-277.335 -124)" fill="#ffb8b8"/>
  <path id="Path_153" data-name="Path 153" d="M552.548,582.5s14,26,23,26,8,17,6,21-7,13,1,26c2.794,4.541,2.294,9.692.461,14.473-5.138,13.4-25.124,9.337-24.486-5q.011-.237.026-.477c1-16-7-41-15-47s-15-22-15-22Z" transform="translate(-286.099 -124)" fill="#ffb8b8"/>
  <path id="Path_154" data-name="Path 154" d="M563.548,454.5l-6,13s-88,29-80,63,47,87,53,85,38-8,39-25-23-47-23-47l33-30,48.02-1,40.98,31s-43,38-24,53,47,25,51,19,49-95,42-103-78-38-78-38l-19-27-74-4Z" transform="translate(-280.524 -124)" fill="#2f2e41"/>
  <path id="Path_155" data-name="Path 155" d="M581.548,289.5s5,33-5,37,20,21,20,21h17l11-23s-10-18-4-35S581.548,289.5,581.548,289.5Z" transform="translate(-281.818 -124)" fill="#ffb8b8"/>
  <path id="Path_156" data-name="Path 156" d="M581.548,289.5s5,33-5,37,20,21,20,21h17l11-23s-10-18-4-35S581.548,289.5,581.548,289.5Z" transform="translate(-281.818 -124)" opacity="0.1"/>
  <path id="Path_157" data-name="Path 157" d="M574.548,317.5s11,12,13,14,11,13,30-3,21,3,21,3v120s-16-7-29,0-40-2-40-2l-5-124Z" transform="translate(-281.612 -124)" fill="#d0cde1"/>
  <path id="Path_158" data-name="Path 158" d="M581.893,317.5s-9.345-4-17.345,0-36,24-34,33,28,72,10,102-21,38-21,38l44-23s34-21,31-34S581.893,317.5,581.893,317.5Z" transform="translate(-286.199 -124)" fill="#3f3d56"/>
  <path id="Path_159" data-name="Path 159" d="M621.56,317.5s20.988,2,21.988,4,31.5,10.5,29.5,19.5-29.5,89.5-17.5,104.5,32,36,25,38-19-3-31,0-40-22-37-49S612.571,324.5,621.56,317.5Z" transform="translate(-276.952 -124)" fill="#3f3d56"/>
  <path id="Path_160" data-name="Path 160" d="M571.548,508.5v10s-5,23,11,22,6-28,6-28l-1-9Z" transform="translate(-283.524 -124)" fill="#ffb8b8"/>
  <path id="Path_161" data-name="Path 161" d="M616.548,509.5s-11,23,0,25,19-13,19-17S616.548,509.5,616.548,509.5Z" transform="translate(-279.557 -124)" fill="#ffb8b8"/>
  <path id="Path_162" data-name="Path 162" d="M272.5,650.524l-2-.048,6-230,2,.048Z" transform="translate(24.684 0)" fill="#2f2e41"/>
  <ellipse id="Ellipse_12" data-name="Ellipse 12" cx="2" cy="4" rx="2" ry="4" transform="translate(350.09 148)" fill="#ffb8b8"/>
  <ellipse id="Ellipse_13" data-name="Ellipse 13" cx="2" cy="4" rx="2" ry="4" transform="translate(285.743 148)" fill="#ffb8b8"/>
  <path id="Path_163" data-name="Path 163" d="M648.548,330.5s25,0,24,10-34,182-34,182-14-13-26-10Z" transform="translate(-277.502 -124)" fill="#3f3d56"/>
  <path id="Path_164" data-name="Path 164" d="M551.548,333.5s-25,5-25,20,36,159,41,159,24-3,24-8S551.548,333.5,551.548,333.5Z" transform="translate(-285.919 -124)" fill="#3f3d56"/>
  <path id="Path_165" data-name="Path 165" d="M557.048,363l22.5,87.991S569.048,374,557.048,363Z" transform="translate(-284.739 -124)" opacity="0.2"/>
  <path id="Path_166" data-name="Path 166" d="M644.565,350.636,621.809,465.68S629.082,357.272,644.565,350.636Z" transform="translate(-278.664 -124)" opacity="0.2"/>
  <circle id="Ellipse_14" data-name="Ellipse 14" cx="29" cy="29" r="29" transform="translate(290.931 123.5)" fill="#ffb8b8"/>
  <path id="Path_167" data-name="Path 167" d="M320.079,123,298.4,111.644l-29.933,4.645-6.193,27.353,15.416-.593L282,133v9.884l7.114-.274,4.128-16,2.581,17.031,25.289-.516Z" transform="translate(26.25 0)" fill="#2f2e41"/>
  <rect id="Rectangle_34" data-name="Rectangle 34" width="598.552" height="2" transform="translate(10 650)" fill="#2f2e41"/>
  <path id="Path_168" data-name="Path 168" d="M772.631,774.02l-2-.039a463.831,463.831,0,0,1,7.1-66.287c8.648-46.881,23.029-77.67,42.743-91.512l1.148,1.637C775.57,650.152,772.654,772.784,772.631,774.02Z" transform="translate(-255.495 -124)" fill="#2f2e41"/>
  <path id="Path_169" data-name="Path 169" d="M797.631,773.541l-2-.039c.043-2.215,1.293-54.414,21.843-68.842l1.148,1.637C798.9,720.143,797.641,773.009,797.631,773.541Z" transform="translate(-255.495 -124)" fill="#2f2e41"/>
  <circle id="Ellipse_15" data-name="Ellipse 15" cx="10" cy="10" r="10" transform="translate(567.552 473)" fill="#6c63ff"/>
  <circle id="Ellipse_16" data-name="Ellipse 16" cx="10" cy="10" r="10" transform="translate(562.552 560)" fill="#6c63ff"/>
  <path id="Path_170" data-name="Path 170" d="M792.97,623.995c1.879,12-3.019,22.741-3.019,22.741s-7.945-8.726-9.825-20.73,3.019-22.741,3.019-22.741S791.09,611.991,792.97,623.995Z" transform="translate(-255.495 -124)" fill="#2f2e41"/>
  <path id="Path_171" data-name="Path 171" d="M825.657,653.148c-11.493,3.942-22.919.99-22.919.99s7.208-9.344,18.7-13.286,22.919-.99,22.919-.99S837.15,649.206,825.657,653.148Z" transform="translate(-255.495 -124)" fill="#2f2e41"/>
  <path id="Path_172" data-name="Path 172" d="M826.026,729.31a31.135,31.135,0,0,1-16.064.694A28.374,28.374,0,0,1,839.134,720a31.133,31.133,0,0,1-13.108,9.313Z" transform="translate(-255.495 -124)" fill="#2f2e41"/>
  <path id="Path_173" data-name="Path 173" d="M2,192H0V62H128v2H2Z" transform="translate(0 0)" fill="#2f2e41"/>
  <path id="Path_174" data-name="Path 174" d="M583.9,192h-2V64h-126V62h128Z" transform="translate(52.552 0)" fill="#2f2e41"/>
  <path id="Path_175" data-name="Path 175" d="M2,302H0V432H128v-2H2Z" transform="translate(0 0)" fill="#2f2e41"/>
  <path id="Path_176" data-name="Path 176" d="M583.9,302h-2V430h-126v2h128Z" transform="translate(52.552 0)" fill="#2f2e41"/>
  <rect id="Rectangle_35" data-name="Rectangle 35" width="140" height="2" transform="translate(36 123)" fill="#3f3d56"/>
  <rect id="Rectangle_36" data-name="Rectangle 36" width="2" height="18.5" transform="translate(74 105)" fill="#3f3d56"/>
  <rect id="Rectangle_37" data-name="Rectangle 37" width="2" height="18.5" transform="translate(147.192 105)" fill="#3f3d56"/>
  <rect id="Rectangle_38" data-name="Rectangle 38" width="140" height="2" transform="translate(466.552 264)" fill="#3f3d56"/>
  <rect id="Rectangle_39" data-name="Rectangle 39" width="2" height="18.5" transform="translate(492.821 246)" fill="#3f3d56"/>
  <rect id="Rectangle_40" data-name="Rectangle 40" width="2" height="18.5" transform="translate(565.552 246)" fill="#3f3d56"/>
  <rect id="Rectangle_41" data-name="Rectangle 41" width="140" height="2" transform="translate(45 358)" fill="#3f3d56"/>
  <rect id="Rectangle_42" data-name="Rectangle 42" width="2" height="18.5" transform="translate(83 340)" fill="#3f3d56"/>
  <rect id="Rectangle_43" data-name="Rectangle 43" width="2" height="18.5" transform="translate(157.005 340)" fill="#3f3d56"/>
</svg>
